<svg class="icon" viewBox="0 0 1025 1024" xmlns="http://www.w3.org/2000/svg" width="200.195" height="200"><defs><style/></defs><path d="M512.72 73.1c241.717 0 439.476 197.21 439.476 438.247s-197.79 438.207-439.477 438.207c-241.717 0-439.476-197.17-439.476-438.212 0-241.036 197.76-438.248 439.476-438.248m0-73.038C227.04.056 0 233.786 0 511.342c0 277.525 227.039 511.255 512.72 511.255 285.68 0 512.688-226.394 512.688-511.255C1025.413 226.45 798.405.056 512.724.056zm51.233 803.417V409.05l175.811 175.335 65.912-73.038-292.95-292.167-292.987 292.162 65.942 73.038 175.74-175.33v394.423h102.532z"/></svg>