<?xml version="1.0" standalone="no"?><!DOCTYPE svg PUBLIC "-//W3C//DTD SVG 1.1//EN" "http://www.w3.org/Graphics/SVG/1.1/DTD/svg11.dtd"><svg t="1584620151673" class="icon" viewBox="0 0 1024 1024" version="1.1" xmlns="http://www.w3.org/2000/svg" p-id="1238" xmlns:xlink="http://www.w3.org/1999/xlink" width="200" height="200"><defs><style type="text/css"></style></defs><path d="M825.568 555.328l-287.392-289.28C531.808 259.648 523.488 256.576 515.2 256.64 514.08 256.544 513.12 256 512 256c-4.672 0-9.024 1.088-13.024 2.88-4.032 1.536-7.872 3.872-11.136 7.136l-259.328 258.88c-12.512 12.48-12.544 32.736-0.032 45.248 6.24 6.272 14.432 9.408 22.656 9.408 8.192 0 16.352-3.136 22.624-9.344L480 364.288 480 928c0 17.696 14.336 32 32 32s32-14.304 32-32L544 362.72l236.192 237.728c6.24 6.272 14.496 9.44 22.688 9.44s16.32-3.104 22.56-9.312C838.016 588.128 838.048 567.84 825.568 555.328z" p-id="1239"></path><path d="M864 192 160 192C142.336 192 128 177.664 128 160s14.336-32 32-32l704 0c17.696 0 32 14.336 32 32S881.696 192 864 192z" p-id="1240"></path></svg>