<?xml version="1.0" standalone="no"?><!DOCTYPE svg PUBLIC "-//W3C//DTD SVG 1.1//EN" "http://www.w3.org/Graphics/SVG/1.1/DTD/svg11.dtd"><svg t="1584781899216" class="icon" viewBox="0 0 1025 1024" version="1.1" xmlns="http://www.w3.org/2000/svg" p-id="3410" xmlns:xlink="http://www.w3.org/1999/xlink" width="200.1953125" height="200"><defs><style type="text/css"></style></defs><path d="M512.71932 73.09934c241.717266 0 439.476629 197.211553 439.476629 438.247896 0 241.036343-197.790082 438.206939-439.476629 438.206939-241.717266 0-439.476629-197.170596-439.476628-438.212059 0-241.036343 197.759363-438.247896 439.476628-438.247896m0-73.037903C227.039033 0.056317 0 233.786822 0 511.342116c0 277.524576 227.039033 511.255081 512.71932 511.255081 285.680288 0 512.688602-226.393948 512.688603-511.255081C1025.413042 226.450265 798.404728 0.056317 512.72444 0.056317z m51.233023 803.416932v-394.423107l175.81113 175.334997 65.911255-73.037903-292.950288-292.166971L219.738314 511.342116l65.941974 73.037903 175.739454-175.329877v394.423107h102.532601z" p-id="3411" fill="#515151"></path></svg>