<?xml version="1.0" encoding="UTF-8"?>
<svg width="84px" height="84px" viewBox="0 0 84 84" version="1.1" xmlns="http://www.w3.org/2000/svg" xmlns:xlink="http://www.w3.org/1999/xlink">
    <!-- Generator: Sketch 57 (83077) - https://sketch.com -->
    <title>aixin-2</title>
    <desc>Created with Sketch.</desc>
    <g id="Page-1" stroke="none" stroke-width="1" fill="none" fill-rule="evenodd" opacity="0.798711868">
        <g id="APP1.0-切图" transform="translate(-574.000000, -2870.000000)">
            <g id="aixin-2" transform="translate(574.000000, 2870.000000)">
                <path d="M0,42 C0,65.1959595 18.8040405,84 42,84 C65.1959595,84 84,65.1959595 84,42 C84,18.8040405 65.1959595,0 42,0 C18.8040405,0 0,18.8040405 0,42 Z" id="Path" fill="#FEC43C"></path>
                <path d="M83,33.6235955 C79.059596,14.4101124 62.2080808,0 41.9191919,0 C18.779798,0 0,18.8764045 0,42.1348315 C0,52.3314607 3.60505051,61.6011236 9.55757576,68.8483146 C16.6838384,72.8089888 24.8161616,75 33.5353535,75 C58.1838384,75 78.640404,57.1348315 83,33.6235955 Z" id="Path" fill="#FFD73A"></path>
                <path d="M42,64 C30.9307935,64 21.7205378,55.9615385 20.0305826,45.3846154 C19.7770893,43.6076923 21.1290535,42 22.9880042,42 L61.0119958,42 C62.8709465,42 64.2229107,43.6076923 63.9694174,45.3846154 C62.2794622,55.9615385 53.0692065,64 42,64 L42,64 Z" id="Path" fill="#873A18"></path>
                <path d="M61.0731175,42 L22.9924573,42 C21.1307361,42 19.7767571,43.557377 20.0306282,45.2786885 C20.1152519,45.852459 20.1998756,46.4262295 20.3691229,47 L63.6118282,47 C63.7810756,46.4262295 63.8656992,45.852459 63.9503229,45.2786885 C64.2888177,43.557377 62.850215,42 61.0731175,42 Z" id="Path" fill="#FFFFFF"></path>
                <path d="M48.3170732,52 C45.7560976,52 43.4512195,53.294964 42,55.2805755 C40.6341463,53.294964 38.3292683,52 35.6829268,52 C31.6707317,52 28.3414634,55.1079137 28,59.0791367 C31.8414634,62.1870504 36.7073171,64 42,64 C47.2926829,64 52.1585366,62.1870504 56,59.0791367 C55.6585366,55.1079137 52.3292683,52 48.3170732,52 L48.3170732,52 Z" id="Path" fill="#F44444"></path>
                <path d="M11.0442645,32.6776896 C13.8438724,34.5146112 16.8131534,35.8505541 19.1037417,36.5185256 C20.4611273,36.9360078 21.4791666,37.1030006 22.0730228,36.9360078 C23.6000816,36.6855185 27.7570751,33.512654 30.8960294,29.2543358 C33.0169444,26.415457 34.7136765,23.0755997 34.9681863,19.7357423 C35.2226961,16.5628778 33.950147,13.4735097 31.1505392,11.5530917 C29.2841339,10.3006452 26.9087091,9.71617017 24.5332842,10.1336523 C21.5640032,10.634631 19.2734149,12.4715525 18.0857025,14.8929491 C16.7283168,13.6405026 14.9467482,12.7220418 13.080343,12.4715525 C9.77171547,12.0540703 6.46308799,13.4735097 4.59668275,16.0618992 C2.6454409,18.7337851 2.5606043,22.0736425 3.91798993,24.9960177 C5.27537556,28.0853857 7.99014683,30.6737752 11.0442645,32.6776896 Z" id="Path" fill="#F44444"></path>
                <path d="M34.8454485,16.3885864 C34.5894238,15.1488597 34.0773744,13.9917814 33.3946419,13 C32.2852016,22.4219232 21.2761399,31.6785495 18.3745267,32.1744402 C16.6676954,32.505034 11.1204938,30.7694165 6,27.6287755 C10.8644691,33.1662216 19.8253333,36.3068626 21.9588724,35.9762688 C24.8604855,35.4803781 36.4669382,25.3972674 34.8454485,16.3885864 L34.8454485,16.3885864 Z" id="Path" fill="#E82D2D"></path>
                <path d="M53.0218615,28.2966316 C54.9340414,30.9384917 57.2619126,33.2501192 59.007816,34.5710492 C60.0886133,35.3966304 61.0031341,35.8919792 61.5851019,35.9745373 C63.0815906,36.2222117 67.9036095,34.6536073 72.2267988,31.6815148 C75.1366378,29.7001198 77.7970621,27.1408179 79.1272742,24.0861673 C80.4574863,21.1140748 80.2912098,17.8117498 78.4621681,15.0873316 C77.2150943,13.2710529 75.2197761,11.9501229 72.8919049,11.5373323 C70.0652042,11.0419835 67.3216417,12.032681 65.4094618,13.9315179 C64.5780792,12.2803554 63.3310053,10.8768673 61.6682402,9.96872788 C58.8415395,8.48268162 55.3497327,8.730356 52.6893084,10.5466348 C50.0288842,12.4454716 48.7818104,15.5826804 49.0312251,18.7198891 C49.3637782,22.1047723 50.943405,25.4896554 53.0218615,28.2966316 L53.0218615,28.2966316 Z" id="Path" fill="#F44444"></path>
                <path d="M79.8553398,21.8819292 C80.1041343,20.5879528 80.0212028,19.2077113 79.6894768,18 C75.4599704,26.8853046 62.3567934,32.4062706 59.5371224,31.8886801 C57.8784925,31.5436197 53.483123,28.0067508 50,23.0896405 C52.487945,30.2496433 59.5371224,36.5469951 61.6104099,36.9783206 C64.2642179,37.409646 78.2796413,31.3710895 79.8553398,21.8819292 L79.8553398,21.8819292 Z" id="Path" fill="#E82D2D"></path>
            </g>
        </g>
    </g>
</svg>