<?xml version="1.0" standalone="no"?><!DOCTYPE svg PUBLIC "-//W3C//DTD SVG 1.1//EN" "http://www.w3.org/Graphics/SVG/1.1/DTD/svg11.dtd"><svg t="1585298080705" class="icon" viewBox="0 0 1024 1024" version="1.1" xmlns="http://www.w3.org/2000/svg" p-id="2813" xmlns:xlink="http://www.w3.org/1999/xlink" width="200" height="200"><defs><style type="text/css"></style></defs><path d="M459.755102 637.387755c-5.22449 0-10.44898-2.089796-14.628571-6.269388l-104.489796-104.489796c-8.359184-8.359184-8.359184-21.420408 0-29.779591 8.359184-8.359184 21.420408-8.359184 29.779592 0l104.489795 104.489796c8.359184 8.359184 8.359184 21.420408 0 29.779591-4.702041 4.179592-9.926531 6.269388-15.15102 6.269388z" p-id="2814" fill="#ea625b"></path><path d="M459.755102 637.387755c-5.22449 0-10.44898-2.089796-14.628571-6.269388-8.359184-8.359184-8.359184-21.420408 0-29.779591l208.979591-208.979592c8.359184-8.359184 21.420408-8.359184 29.779592 0 8.359184 8.359184 8.359184 21.420408 0 29.779592l-208.979592 208.979591c-4.702041 4.179592-9.926531 6.269388-15.15102 6.269388z" p-id="2815" fill="#ea625b"></path><path d="M512 929.959184c-230.4 0-417.959184-187.559184-417.959184-417.959184s187.559184-417.959184 417.959184-417.959184 417.959184 187.559184 417.959184 417.959184-187.559184 417.959184-417.959184 417.959184z m0-794.122449c-207.412245 0-376.163265 168.75102-376.163265 376.163265s168.75102 376.163265 376.163265 376.163265 376.163265-168.75102 376.163265-376.163265-168.75102-376.163265-376.163265-376.163265z" p-id="2816" fill="#ea625b"></path></svg>