<svg class="icon" viewBox="0 0 1024 1024" xmlns="http://www.w3.org/2000/svg" width="200" height="200"><defs><style/></defs><path d="M459.755 637.388c-5.224 0-10.449-2.09-14.628-6.27l-104.49-104.49c-8.36-8.359-8.36-21.42 0-29.779 8.359-8.36 21.42-8.36 29.78 0l104.49 104.49c8.358 8.359 8.358 21.42 0 29.78-4.703 4.179-9.927 6.269-15.152 6.269z"/><path d="M459.755 637.388c-5.224 0-10.449-2.09-14.628-6.27-8.36-8.359-8.36-21.42 0-29.78l208.98-208.979c8.358-8.359 21.42-8.359 29.779 0 8.359 8.36 8.359 21.42 0 29.78l-208.98 208.98c-4.702 4.179-9.926 6.269-15.15 6.269z"/><path d="M512 929.96C281.6 929.96 94.04 742.4 94.04 512S281.6 94.04 512 94.04 929.96 281.6 929.96 512 742.4 929.96 512 929.96zm0-794.123c-207.412 0-376.163 168.75-376.163 376.163S304.587 888.163 512 888.163 888.163 719.413 888.163 512 719.413 135.837 512 135.837z"/></svg>