<svg class="icon" viewBox="0 0 1024 1024" xmlns="http://www.w3.org/2000/svg" width="200" height="200"><defs><style/></defs><path d="M718.188 520.572H305.821v-51.546c0-18.978 15.386-34.363 34.364-34.363h343.64c18.978 0 34.363 15.385 34.363 34.363v51.546z"/><path d="M512 958.709c-13.91 0-27.837-4.203-39.717-12.618l-175.83-124.594C191.214 738.909 133.996 622.15 133.996 491.733V255.222a34.37 34.37 0 0119.648-31.05L473.626 72.453a31.992 31.992 0 013.691-1.493c22.3-7.55 46.915-7.567 69.248 0a32.1 32.1 0 013.691 1.493l320.099 151.719a34.363 34.363 0 0119.648 31.05v236.512c0 130.434-57.217 247.184-161.098 328.757L551.733 946.082c-11.88 8.416-25.807 12.627-39.733 12.627zm-309.276-681.75v214.774c0 108.873 47.888 206.428 134.822 274.702L512 890.006 687.813 765.42c85.592-67.252 133.463-164.806 133.463-273.687V276.96l-298.37-141.416c-7.131-2.064-14.832-2.064-21.93 0L202.724 276.959z"/><path d="M512 676.532c-18.977 0-34.364-15.386-34.364-34.363v-329.1c0-18.978 15.387-34.364 34.364-34.364s34.364 15.386 34.364 34.363v329.1c0 18.978-15.387 34.364-34.364 34.364z"/></svg>