<svg class="icon" viewBox="0 0 1024 1024" xmlns="http://www.w3.org/2000/svg" width="200" height="200"><defs><style/></defs><path d="M823.8 696.294c-44.977 0-85.864 17.718-114.483 49.064L350.876 536.834c4.09-16.354 4.09-32.709 0-49.063l358.44-207.16c28.62 31.347 69.507 50.427 114.484 50.427 87.225-1.363 152.645-66.783 154.006-154.008-1.361-87.225-66.78-154.006-154.006-155.368-87.225 1.362-154.008 68.143-155.37 155.37 0 9.539 1.362 19.08 2.727 28.62L315.441 410.087c-28.62-31.346-68.145-51.79-115.846-51.79-87.225 1.362-154.007 66.782-155.37 154.007 1.363 87.225 68.145 152.645 155.37 154.006 44.976 0 87.225-20.443 115.846-51.79l355.716 205.798c-1.363 9.54-2.727 19.08-2.727 29.983 1.362 87.227 68.145 152.645 155.37 154.008 87.225-1.363 152.645-66.78 154.006-154.008-1.361-87.225-66.78-152.645-154.006-154.006z"/></svg>